HIERARCHY
ROOT ui
{
	 OFFSET 0 0 0
	 CHANNELS 3 XPosition YPosition Z Position
	 EndSite
	 {
	 OFFSET 0 -1 0
	 }
}
ROOT li
{
	 OFFSET 0 0 0
	 CHANNELS 3 XPosition YPosition Z Position
	 EndSite
	 {
	 OFFSET 0 -1 0
	 }
}
ROOT ul
{
	 OFFSET 0 0 0
	 CHANNELS 3 XPosition YPosition Z Position
	 EndSite
	 {
	 OFFSET 0 -1 0
	 }
}
ROOT ll
{
	 OFFSET 0 0 0
	 CHANNELS 3 XPosition YPosition Z Position
	 EndSite
	 {
	 OFFSET 0 -1 0
	 }
}
ROOT tt
{
	 OFFSET 0 0 0
	 CHANNELS 3 XPosition YPosition Z Position
	 EndSite
	 {
	 OFFSET 0 -1 0
	 }
}
ROOT tb
{
	 OFFSET 0 0 0
	 CHANNELS 3 XPosition YPosition Z Position
	 EndSite
	 {
	 OFFSET 0 -1 0
	 }
}
ROOT td
{
	 OFFSET 0 0 0
	 CHANNELS 3 XPosition YPosition Z Position
	 EndSite
	 {
	 OFFSET 0 -1 0
	 }
}
ROOT v
{
	 OFFSET 0 0 0
	 CHANNELS 3 XPosition YPosition Z Position
	 EndSite
	 {
	 OFFSET 0 -1 0
	 }
}
ROOT bn
{
	 OFFSET 0 0 0
	 CHANNELS 3 XPosition YPosition Z Position
	 EndSite
	 {
	 OFFSET 0 -1 0
	 }
}
MOTION
Frames: 24
Frame Time: 0.002
-0.04449931716918945	0.007372610092163086	0		0.4035245666503906	-2.31365283203125	0		-1.0160755615234376	0.10904647827148438	0		-0.6743372192382813	-2.561414794921875	0		2.520676513671875	-3.399479985237122E-4	0		3.848513916015625	-0.08738857269287109	0		5.00603515625	-0.12786161041259766	0		6.01480224609375	0.5779952392578125	0		-0.2699534301757813	5.876443359375	0		
0.04205443954467773	-0.0051573610305786135	0		0.37839651489257814	-2.308485107421875	0		-1.0872657470703124	0.11486772155761718	0		-0.7314999389648438	-2.558794677734375	0		2.524495849609375	0.005449688911437988	0		3.839960693359375	-0.10637844848632813	0		4.994025390625	-0.11076315307617188	0		6.0225146484375	0.5778223876953125	0		-0.25046476745605467	5.87091552734375	0		
0.04595081329345703	-0.0014367799758911134	0		0.4004453430175781	-2.299026611328125	0		-1.0124558715820313	0.11248983764648438	0		-0.7024599609375	-2.55047216796875	0		2.520242431640625	-6.390600204467773E-4	0		3.87288671875	-0.10098816680908203	0		5.0056083984375	-0.1280223388671875	0		6.01335107421875	0.5789055786132813	0		-0.11847615051269532	5.89070166015625	0		
-0.044989025115966794	0.006708352088928222	0		0.3615941772460938	-2.289652099609375	0		-1.0165737915039061	0.10830083465576172	0		-0.7383944702148437	-2.547173095703125	0		2.541169921875	-0.002104377031326294	0		3.857910888671875	-0.09587590789794923	0		5.0096611328125	-0.12116362762451172	0		6.01327978515625	0.5788533935546875	0		-0.13383013916015624	5.881703125	0		
0.041886516571044925	-0.0058174958229064945	0		0.38763067626953124	-2.29525341796875	0		-1.0283753662109374	0.11822841644287109	0		-0.7023218994140625	-2.550955078125	0		2.579126220703125	-0.008824432373046875	0		3.853859619140625	-0.10292987060546875	0		5.00971484375	-0.12124607086181641	0		6.005314453125	0.5789188842773437	0		-0.2521109619140625	5.87124560546875	0		
-0.03493825531005859	-0.0038898420333862305	0		0.3717867126464844	-2.299227783203125	0		-1.0913546142578125	0.109918701171875	0		-0.7360223388671875	-2.545691162109375	0		2.57927783203125	-0.008978863716125489	0		3.8548642578125	-0.11306340789794922	0		4.99784130859375	-0.12315462493896484	0		6.0144345703125	0.5777233276367187	0		-0.2852203979492188	5.86450830078125	0		
0.04228656005859375	-0.006266799926757813	0		0.40313616943359376	-2.296908203125	0		-1.0061486206054688	0.10639491271972656	0		-0.7177097778320313	-2.546205810546875	0		2.526517333984375	-0.009347290992736816	0		3.88239599609375	-0.09459491729736329	0		5.00630078125	-0.10937220001220703	0		6.01466748046875	0.5776532592773438	0		-0.2699773864746094	5.87404931640625	0		
-0.02724674606323242	0.0025483999252319334	0		0.37859555053710936	-2.29275390625	0		-1.006677490234375	0.11515559387207032	0		-0.711202880859375	-2.5395419921875	0		2.57806005859375	0.0037263360023498536	0		3.864650390625	-0.10045697021484375	0		5.01767138671875	-0.10763916015625	0		6.017873046875	0.5695317993164063	0		-0.2518314819335937	5.87054638671875	0		
0.0342004280090332	0.0034124140739440916	0		0.39513406372070314	-2.289210693359375	0		-1.0113150634765624	0.11097796630859375	0		-0.7276843872070312	-2.53753466796875	0		2.569321533203125	-0.007302596092224121	0		3.8650771484375	-0.10058927917480469	0		5.0239638671875	-0.11683129119873047	0		6.00641845703125	0.578630126953125	0		-0.11923935699462891	5.8903466796875	0		
-0.043274951934814454	0.005345934867858886	0		0.36569613647460936	-2.28898095703125	0		-1.0108165893554688	0.1107269287109375	0		-0.727119384765625	-2.537778564453125	0		2.56886767578125	-0.0044491801261901855	0		3.875535400390625	-0.10386602020263672	0		5.03342236328125	-0.12006407928466797	0		6.01465185546875	0.5614384155273437	0		-0.13401806640625	5.881341796875	0		
0.04412273025512695	-0.007166498184204102	0		0.40112948608398435	-2.302711669921875	0		-1.0102490234375	0.11047796630859374	0		-0.7047374877929687	-2.55534423828125	0		2.569438232421875	-0.004605158805847168	0		3.884240966796875	-0.09510765075683594	0		5.04220263671875	-0.10627618408203125	0		6.01644482421875	0.5773553466796875	0		-0.237603759765625	5.8816572265625	0		
-0.04207265472412109	0.0049017610549926755	0		0.37892950439453127	-2.295580322265625	0		-1.0045612182617187	0.1141572265625	0		-0.7040367431640625	-2.55558251953125	0		2.5760107421875	-0.008843758583068847	0		3.8899638671875	-0.08929726409912109	0		5.05383642578125	-0.1065228500366211	0		6.0080771484375	0.5784307250976563	0		-0.2853610229492187	5.86614404296875	0		
0.036590217590332035	0.002533379077911377	0		0.3997953796386719	-2.288081298828125	0		-1.0038781127929688	0.11391419219970703	0		-0.752141357421875	-2.546094482421875	0		2.60590087890625	0.004582553863525391	0		3.913768310546875	-0.08174525451660156	0		5.05452587890625	-0.10659798431396485	0		6.0126142578125	0.5693239135742187	0		-0.13260276794433593	5.880673828125	0		
-0.030802093505859374	-0.005672968864440918	0		0.38047830200195315	-2.295985107421875	0		-1.0031483154296874	0.11367455291748046	0		-0.7085610961914063	-2.561958984375	0		2.601604736328125	0.0025203690528869628	0		3.929502197265625	-0.08206499481201172	0		5.06524609375	-0.10781118774414063	0		6.01721240234375	0.5612274169921875	0		-0.1330235137939453	5.8814736328125	0		
0.038095367431640624	0.0021184020042419433	0		0.39737509155273437	-2.292416015625	0		-1.0123636474609374	0.11458583068847657	0		-0.7185947265625	-2.554025146484375	0		2.601421142578125	0.005404901027679443	0		3.90352978515625	-0.06476043701171875	0		5.0742265625	-0.09398789978027344	0		6.01021923828125	0.578313720703125	0		-0.1334092254638672	5.8822783203125	0		
-0.03907826614379883	0.004063361167907715	0		0.37027764892578124	-2.29019482421875	0		-0.9975210571289063	0.1171490478515625	0		-0.7108938598632812	-2.56634912109375	0		2.628162841796875	8.980209827423095E-4	0		3.91933349609375	-0.06506826782226563	0		5.0891337890625	-0.08724767303466797	0		6.014873046875	0.5692297973632813	0		-0.2830401916503906	5.86527734375	0		
0.04857687377929688	-0.008407770156860351	0		0.385106689453125	-2.29458544921875	0		-1.0676322021484375	0.12196543884277344	0		-0.7700052490234375	-2.566685302734375	0		2.61132763671875	0.02403593635559082	0		3.96644921875	-0.045832286834716796	0		5.09816650390625	-0.07342174530029297	0		6.0207998046875	0.5771259765625	0		-0.2672463989257812	5.8738525390625	0		
-0.01740151596069336	0.004381852149963379	0		0.415	-2.295190673828125	0		-0.9918193359375	0.1196507797241211	0		-0.7070647583007813	-2.564802734375	0		2.6271201171875	0.02069191551208496	0		3.94148193359375	-0.032544052124023434	0		5.119990234375	-0.07479118347167969	0		6.01239111328125	0.5612202758789062	0		-0.24957199096679689	5.87240673828125	0		
0.041402584075927736	0.001349910020828247	0		0.4029500427246094	-2.291176513671875	0		-1.0109364013671875	0.12273629760742187	0		-0.7102266235351562	-2.56894384765625	0		2.64210400390625	0.030359819412231447	0		3.951438232421875	-0.024773897171020506	0		5.12493310546875	-0.06792188262939453	0		6.01321826171875	0.56116845703125	0		-0.11456945037841797	5.8912568359375	0		
-0.025895854949951173	-0.006833931922912598	0		0.4017891845703125	-2.2933173828125	0		-1.0141709594726562	0.11859864807128906	0		-0.7124259643554688	-2.574090576171875	0		2.637900390625	0.02830422019958496	0		3.970277099609375	-0.024141138076782226	0		5.1357587890625	-0.06815055847167968	0		6.014033203125	0.5611021118164062	0		-0.263303955078125	5.86125439453125	0		
-0.034953495025634766	0.003140170097351074	0		0.37667892456054686	-2.289103271484375	0		-1.013377197265625	0.11841374206542969	0		-0.7505745239257813	-2.57270263671875	0		2.621828369140625	0.03741904067993164	0		3.9643505859375	-0.005153841972351074	0		5.1447587890625	-0.05436448669433594	0		6.01482080078125	0.56101904296875	0		-0.23329039001464844	5.88165576171875	0		
-0.03420174026489258	0.0029780709743499755	0		0.4143040466308594	-2.299799072265625	0		-1.0085687866210937	0.1221831512451172	0		-0.7019622802734375	-2.584570068359375	0		2.667502197265625	0.03162862586975097	0		3.98821630859375	0.002388262987136841	0		5.160611328125	-0.047693920135498044	0		6.01968310546875	0.5688583984375	0		-0.2325975341796875	5.88149169921875	0		
0.060430179595947264	-0.002542699098587036	0		0.3900775451660156	-2.295585693359375	0		-1.0038260498046876	0.124966796875	0		-0.7012481689453125	-2.58472607421875	0		2.76141064453125	0.045135047912597655	0		3.97715087890625	0.018430580139160158	0		5.1712958984375	-0.04896377563476562	0		6.01626416015625	0.5607977905273438	0		-0.2460733947753906	5.87154296875	0		
-0.006876284122467041	0.001304880976676941	0		0.43373239135742186	-2.295353515625	0		-1.0112846069335937	0.11794084930419922	0		-0.7026318969726563	-2.586839599609375	0		2.74799658203125	0.041199745178222655	0		4.000907470703125	0.02595646667480469	0		5.1760693359375	-0.040160224914550784	0		6.01690625	0.560661376953125	0		-0.113115478515625	5.89247607421875	0		
